<svg xmlns="http://www.w3.org/2000/svg" width="1000" height="300"><defs><linearGradient id="grad" x1="0%" y1="0%" x2="100%" y2="100%"><stop offset="0%" style="stop-color: rgb(255,255,0); stop-opacity: 1;"></stop><stop offset="100%" style="stop-color: rgb(255,0,0); stop-opacity: 1;"></stop></linearGradient></defs><g><path fill="url(#grad)" d="M 0,150 L 0,149.96920527740875 L 2.2582090415076888,148.53118953795106 L 4.5164180830153775,148.63722908636237 L 6.774627124523066,148.7376765462764 L 9.032836166030755,149.05553604129616 L 11.291045207538444,147.88680681059162 L 13.549254249046133,148.7723647717701 L 15.807463290553821,147.24570067966502 L 18.06567233206151,147.51007759600148 L 20.3238813735692,148.41364428429551 L 22.582090415076888,147.96303608373518 L 24.840299456584575,148.48101723710425 L 27.098508498092265,147.6037649598354 L 29.356717539599956,148.21723436365173 L 31.614926581107643,147.61827076559905 L 33.87313562261533,148.6627545669061 L 36.13134466412302,147.1043463435658 L 38.38955370563071,147.54653941799793 L 40.6477627471384,146.13102712709386 L 42.905971788646085,148.0719466821243 L 45.164180830153775,146.33480373910143 L 47.422389871661466,147.33255750105332 L 49.68059891316915,147.4214350242031 L 51.93880795467684,147.22117103770518 L 54.19701699618453,147.83819327930598 L 56.45522603769222,146.63807426866975 L 58.71343507919991,147.57184889556632 L 60.971644120707595,147.40965015493163 L 63.229853162215285,147.91045853773477 L 65.48806220372298,146.45658603070126 L 67.74627124523066,146.8871853289817 L 70.00448028673836,144.0011367813244 L 72.26268932824604,142.67400214482032 L 74.52089836975372,143.63257570090371 L 76.77910741126142,145.2978287793392 L 79.0373164527691,141.6603413812296 L 81.2955254942768,141.55492932540494 L 83.55373453578449,142.58834056924746 L 85.81194357729217,140.6214944485558 L 88.07015261879987,142.26980140261577 L 90.32836166030755,142.04436268071032 L 92.58657070181523,140.5707875835765 L 94.84477974332293,142.79439372713583 L 97.10298878483061,140.96828161487366 L 99.3611978263383,143.76116475996284 L 101.619406867846,145.6305073809231 L 103.87761590935368,142.88497431027042 L 106.13582495086138,141.4579391344571 L 108.39403399236906,140.30240035812395 L 110.65224303387674,141.79669250775453 L 112.91045207538444,141.86949060502704 L 115.16866111689212,142.30227952702418 L 117.42687015839982,142.653567837361 L 119.6850791999075,143.35195491702345 L 121.94328824141519,141.85796314453347 L 124.20149728292289,140.2526779848721 L 126.45970632443057,141.94793921195836 L 128.71791536593827,140.71893813274812 L 130.97612440744595,139.34283363090321 L 133.23433344895363,141.33746634272364 L 135.49254249046132,144.2018029697184 L 137.750751531969,140.64297248890298 L 140.0089605734767,141.87556636981387 L 142.2671696149844,138.58434164250616 L 144.52537865649208,137.22181637881081 L 146.78358769799976,139.35561232245257 L 149.04179673950745,138.39413857953704 L 151.30000578101516,140.07645248883233 L 153.55821482252284,142.7248492577786 L 155.81642386403053,140.9875682057397 L 158.0746329055382,140.4765335071845 L 160.3328419470459,142.72368233323277 L 162.5910509885536,142.35162608256334 L 164.8492600300613,143.04202562535295 L 167.10746907156897,142.84948491437675 L 169.36567811307665,142.4331471123784 L 171.62388715458434,142.23437353005284 L 173.88209619609202,142.21087744754698 L 176.14030523759973,142.08906251347702 L 178.39851427910742,142.66631916665733 L 180.6567233206151,141.81593554334958 L 182.91493236212278,142.69286098092795 L 185.17314140363047,142.5995219867044 L 187.43135044513818,141.726670380346 L 189.68955948664586,141.9375880746164 L 191.94776852815355,142.93555829137125 L 194.20597756966123,143.43056532793344 L 196.4641866111689,141.6600890265144 L 198.7223956526766,140.9399060268992 L 200.9806046941843,139.88891824049446 L 203.238813735692,142.71188900253975 L 205.49702277719967,139.86093297105535 L 207.75523181870736,139.63355841469516 L 210.01344086021504,142.69538776352255 L 212.27164990172275,140.71274917697679 L 214.52985894323044,140.51480582156398 L 216.78806798473812,140.01286112685318 L 219.0462770262458,128.2510974201528 L 221.3044860677535,134.79007860501127 L 223.5626951092612,126.8275254289912 L 225.82090415076888,130.7562714165657 L 228.07911319227657,126.01767379200825 L 230.33732223378425,132.42553392800056 L 232.59553127529193,126.96157603092297 L 234.85374031679964,135.79183015714275 L 237.11194935830733,131.5086872636323 L 239.370158399815,132.69462173982606 L 241.6283674413227,135.7782637383295 L 243.88657648283038,136.23121711676893 L 246.14478552433806,141.01642337950287 L 248.40299456584577,142.97687757803536 L 250.66120360735346,142.04917055088322 L 252.91941264886114,139.64703075890367 L 255.17762169036882,132.6281994052414 L 257.43583073187654,135.38158089242341 L 259.6940397733842,137.59250479025684 L 261.9522488148919,138.02976538915118 L 264.21045785639956,138.344091196469 L 266.46866689790727,141.460631373198 L 268.726875939415,140.09858600894114 L 270.98508498092264,142.3886064660689 L 273.24329402243035,136.70929173118242 L 275.501503063938,136.63224823949074 L 277.7597121054457,141.78824475398886 L 280.0179211469534,142.3628976242032 L 282.2761301884611,141.15848447299956 L 284.5343392299688,133.79693965454024 L 286.79254827147645,121.14404684146618 L 289.05075731298416,125.95615953941568 L 291.3089663544919,121.99772174638764 L 293.5671753959995,125.88804912622419 L 295.82538443750724,125.98982755495761 L 298.0835934790149,128.61423155607025 L 300.3418025205226,124.73395815477885 L 302.6000115620303,135.96350444030242 L 304.858220603538,137.2368935791294 L 307.1164296450457,131.4243171336944 L 309.37463868655334,133.32799578121916 L 311.63284772806105,135.1720545162236 L 313.89105676956876,142.88027468478145 L 316.1492658110764,142.87038412129414 L 318.40747485258413,141.66357310295336 L 320.6656838940918,141.66949991937327 L 322.9238929355995,137.21984629489145 L 325.1821019771072,138.3896412117097 L 327.44031101861486,137.84448951425117 L 329.6985200601226,139.4939652383701 L 331.95672910163023,138.76815634833974 L 334.21493814313794,141.06967892289896 L 336.4731471846456,137.4210572337316 L 338.7313562261533,137.00474210069257 L 340.989565267661,137.73553830740386 L 343.2477743091687,140.2718060663972 L 345.5059833506764,139.89744777383007 L 347.76419239218404,139.65646081713535 L 350.02240143369175,137.25363219430469 L 352.28061047519947,125.62905956498706 L 354.5388195167071,123.39025703589536 L 356.79702855821483,123.19378219860597 L 359.0552375997225,130.78713461002243 L 361.3134466412302,118.75139645929512 L 363.5716556827379,120.4933249233692 L 365.82986472424557,128.05471549283502 L 368.0880737657533,135.13793093888114 L 370.34628280726093,132.32568182058642 L 372.60449184876865,128.58336236749747 L 374.86270089027636,138.78715919220522 L 377.120909931784,137.63324862676814 L 379.3791189732917,138.60954631826408 L 381.6373280147994,135.95797528177863 L 383.8955370563071,137.5481768634332 L 386.1537460978148,139.8243027645568 L 388.41195513932246,139.96188721871195 L 390.67016418083017,138.19080675171293 L 392.9283732223378,139.32276649876457 L 395.18658226384554,142.43091231849462 L 397.4447913053532,138.22772669714632 L 399.7030003468609,136.23222862001705 L 401.9612093883686,140.30658330709556 L 404.21941842987627,140.81953805621902 L 406.477627471384,134.22206130398362 L 408.73583651289164,133.36755372767166 L 410.99404555439935,138.9762199614139 L 413.25225459590706,141.45524155999357 L 415.5104636374147,137.80736458796162 L 417.7686726789224,133.2322473807834 L 420.0268817204301,130.36832547957025 L 422.2850907619378,126.36627599658671 L 424.5432998034455,125.67205888987989 L 426.80150884495316,131.09019735703993 L 429.0597178864609,114.81294938532946 L 431.31792692796853,125.7519931028143 L 433.57613596947624,126.51579305326139 L 435.83434501098395,134.04718523784499 L 438.0925540524916,131.96230354351383 L 440.3507630939993,135.12515477586444 L 442.608972135507,137.68878431102857 L 444.8671811770147,136.31357294002368 L 447.1253902185224,133.54826264188353 L 449.38359926003005,134.91415488490716 L 451.64180830153776,134.69844606138088 L 453.9000173430454,133.19386369517653 L 456.15822638455313,133.16120007138028 L 458.41643542606084,136.34992330238936 L 460.6746444675685,137.29001211677013 L 462.9328535090762,136.51108750728974 L 465.19106255058387,135.56018124902403 L 467.4492715920916,138.9578286214052 L 469.7074806335993,140.97944235070608 L 471.96568967510694,137.31183993601908 L 474.22389871661466,137.6368029589168 L 476.4821077581223,136.58970575259278 L 478.74031679963,138.5659837101107 L 480.9985258411377,137.78175973666356 L 483.2567348826454,135.66265503096085 L 485.5149439241531,131.98732568054436 L 487.77315296566076,123.90826657925815 L 490.03136200716847,131.9813813596654 L 492.2895710486761,119.80240568707102 L 494.54778009018384,127.84450364373134 L 496.80598913169155,129.6023966474515 L 499.0641981731992,127.48122877281678 L 501.3224072147069,132.8516300608241 L 503.58061625621457,136.16175540520487 L 505.8388252977223,132.02347524213647 L 508.09703433923,134.18854368709816 L 510.35524338073765,136.7313001696043 L 512.6134524222454,139.54874481483736 L 514.8716614637531,142.41412551606064 L 517.1298705052607,137.8064440210741 L 519.3880795467684,139.73783828591974 L 521.6462885882761,138.92709282043543 L 523.9044976297838,140.7629028618306 L 526.1627066712915,140.52147085201688 L 528.4209157127991,135.53772090484944 L 530.6791247543068,134.4015087468541 L 532.9373337958145,129.66752671188644 L 535.1955428373223,135.27257224243235 L 537.45375187883,139.35389556233432 L 539.7119609203376,140.60746552139773 L 541.9701699618453,138.63105935892014 L 544.228379003353,140.9803218758952 L 546.4865880448607,138.2517961621772 L 548.7447970863684,140.99057044244893 L 551.003006127876,138.86908670676462 L 553.2612151693837,140.3181409549651 L 555.5194242108914,141.01287065317194 L 557.7776332523991,137.38709709525443 L 560.0358422939069,138.1165877358414 L 562.2940513354145,139.51708662763497 L 564.5522603769222,140.86279109455572 L 566.8104694184299,138.41304988672096 L 569.0686784599376,139.05763977748455 L 571.3268875014453,133.5845973754337 L 573.5850965429529,134.94126242027158 L 575.8433055844606,138.75475144530915 L 578.1015146259683,138.02114143203528 L 580.359723667476,138.33635337482028 L 582.6179327089837,138.8089712880256 L 584.8761417504913,137.61768788807296 L 587.134350791999,139.87860616361812 L 589.3925598335068,135.40575059352005 L 591.6507688750145,122.87558995089019 L 593.9089779165222,121.02674434436616 L 596.1671869580298,128.328761400793 L 598.4253959995375,126.65307490206106 L 600.6836050410452,129.31245511398947 L 602.9418140825529,132.8215407669969 L 605.2000231240606,129.717076154046 L 607.4582321655682,131.00888742800825 L 609.716441207076,134.62149297177325 L 611.9746502485837,128.75288056808685 L 614.2328592900914,129.5231721365931 L 616.4910683315991,137.88052469457588 L 618.7492773731067,136.86864463652864 L 621.0074864146144,139.94567653142406 L 623.2656954561221,137.8227271519804 L 625.5239044976298,138.73355815727595 L 627.7821135391375,139.03938011060362 L 630.0403225806451,134.74253800334324 L 632.2985316221528,138.25659247205397 L 634.5567406636605,135.87192871534236 L 636.8149497051683,137.1269027892825 L 639.073158746676,140.34971997065205 L 641.3313677881836,137.48594711023947 L 643.5895768296913,141.72850136569818 L 645.847785871199,138.00269928064586 L 648.1059949127067,135.40363388636234 L 650.3642039542144,137.3133382759824 L 652.622412995722,139.18419959485863 L 654.8806220372297,139.90931525414123 L 657.1388310787374,133.61305731304708 L 659.3970401202452,131.51423290392285 L 661.6552491617527,128.57045818823272 L 663.9134582032605,126.90962932045011 L 666.1716672447682,131.79903005206646 L 668.4298762862759,130.6495808359661 L 670.6880853277836,134.97195364380184 L 672.9462943692912,130.61421683624715 L 675.2045034107989,131.28289923396292 L 677.4627124523066,129.06780850945097 L 679.7209214938143,131.21390885071534 L 681.979130535322,133.89939981629834 L 684.2373395768296,140.50846771223092 L 686.4955486183374,138.86409408979821 L 688.7537576598451,139.0813919374571 L 691.0119667013528,140.0153781705602 L 693.2701757428605,139.07970119786097 L 695.5283847843681,138.33420311536028 L 697.7865938258758,135.25817839299168 L 700.0448028673835,136.0950645386596 L 702.3030119088912,133.24915576533112 L 704.5612209503989,135.68499762017706 L 706.8194299919065,135.78305480016536 L 709.0776390334142,135.77605022071336 L 711.335848074922,141.3394147878629 L 713.5940571164297,139.98505024349765 L 715.8522661579374,135.26048851660812 L 718.110475199445,136.7759542283935 L 720.3686842409527,134.29410985252807 L 722.6268932824604,138.02408184293498 L 724.8851023239681,122.65959856386922 L 727.1433113654758,120.22860654618611 L 729.4015204069834,126.00408060146626 L 731.6597294484911,124.70655754237775 L 733.9179384899988,125.95414868367513 L 736.1761475315066,119.71107094175235 L 738.4343565730143,123.35130976198643 L 740.6925656145219,123.41046776500272 L 742.9507746560296,125.93429169402451 L 745.2089836975373,132.05420390774844 L 747.467192739045,132.01100357218024 L 749.7254017805527,134.32244787675216 L 751.9836108220603,135.30973048832433 L 754.241819863568,136.32000451411344 L 756.5000289050757,137.70747821651352 L 758.7582379465834,139.59705663989732 L 761.0164469880912,138.16326706701415 L 763.2746560295988,139.36592310758684 L 765.5328650711065,139.61291066493263 L 767.7910741126142,136.2599027428196 L 770.0492831541219,135.60544041840856 L 772.3074921956296,134.88382724830706 L 774.5657012371372,134.77186364621596 L 776.8239102786449,137.79668100795968 L 779.0821193201526,140.70504516336675 L 781.3403283616603,136.03649930536886 L 783.598537403168,132.36410865972576 L 785.8567464446757,129.1234214595562 L 788.1149554861834,129.19299036360468 L 790.3731645276911,122.36626689158973 L 792.6313735691988,130.12598186052017 L 794.8895826107064,116.86878435979105 L 797.1477916522141,118.19143654157037 L 799.4060006937218,122.43040918908733 L 801.6642097352295,130.76370337693038 L 803.9224187767372,128.38336256719242 L 806.1806278182448,137.37909486654692 L 808.4388368597525,138.01576174887236 L 810.6970459012603,135.34364770713154 L 812.955254942768,131.82858840876162 L 815.2134639842757,135.92754617740823 L 817.4716730257833,137.5650735612232 L 819.729882067291,138.6349912119252 L 821.9880911087987,136.27294094279202 L 824.2463001503064,136.19120953683995 L 826.5045091918141,133.95854967637598 L 828.7627182333217,135.69104681208438 L 831.0209272748294,136.67075999956393 L 833.2791363163371,139.33876132934935 L 835.5373453578449,131.25969115500564 L 837.7955543993526,129.4939504170527 L 840.0537634408602,133.248063490506 L 842.3119724823679,133.37054986740978 L 844.5701815238756,136.48906767843533 L 846.8283905653833,138.11419204127844 L 849.086599606891,134.41198202822568 L 851.3448086483986,130.9737826830482 L 853.6030176899063,118.96717028873907 L 855.861226731414,128.13107290511232 L 858.1194357729217,117.93246437246145 L 860.3776448144295,126.997502221008 L 862.6358538559371,127.57657528113434 L 864.8940628974448,123.1369994005534 L 867.1522719389525,128.3402046573019 L 869.4104809804602,131.46397380732415 L 871.6686900219679,130.27227945174428 L 873.9268990634755,133.904488377292 L 876.1851081049832,136.2034411847857 L 878.4433171464909,132.48105271203036 L 880.7015261879986,136.80809640135365 L 882.9597352295064,136.66637863574982 L 885.217944271014,139.43083386613742 L 887.4761533125217,136.3887830994022 L 889.7343623540294,134.72372645522833 L 891.9925713955371,134.51548614073056 L 894.2507804370448,137.3369280872854 L 896.5089894785524,137.43901563679196 L 898.7671985200601,131.80287635830624 L 901.0254075615678,136.1513409852485 L 903.2836166030755,137.32285759629474 L 905.5418256445832,140.46529974309948 L 907.8000346860908,143.4898051326274 L 910.0582437275986,141.77586710297618 L 912.3164527691063,137.91174786829689 L 914.574661810614,138.29183615792883 L 916.8328708521217,138.06544222157126 L 919.0910798936293,138.89328823803936 L 921.349288935137,136.3930532326888 L 923.6074979766447,136.53824280386945 L 925.8657070181524,135.07230038416515 L 928.1239160596601,133.14952725593187 L 930.3821251011677,135.97899807493053 L 932.6403341426754,134.5511668097983 L 934.8985431841832,132.76046985748883 L 937.1567522256909,132.16073278488994 L 939.4149612671986,131.85347582419453 L 941.6731703087062,134.12990847142137 L 943.9313793502139,137.92815856732503 L 946.1895883917216,139.4930171517831 L 948.4477974332293,140.01425822487346 L 950.7060064747369,137.6814231455829 L 952.9642155162446,140.88758465509488 L 955.2224245577523,140.39338816039364 L 957.48063359926,140.55965636657422 L 959.7388426407678,136.33743805983332 L 961.9970516822754,140.09163563090328 L 964.2552607237831,136.35674326692447 L 966.5134697652908,142.34066807873626 L 968.7716788067985,142.18102695455772 L 971.0298878483062,138.8232674253583 L 973.2880968898138,135.4442416175091 L 975.5463059313215,140.77161811677098 L 977.8045149728292,141.19784916243668 L 980.0627240143369,139.16895457027408 L 982.3209330558446,138.62569113003264 L 984.5791420973522,138.24077056963995 L 986.83735113886,137.72518134270274 L 989.0955601803677,134.28527374320808 L 991.3537692218754,137.0981317476987 L 993.6119782633831,138.36089206974654 L 995.8701873048907,135.6645720379004 L 998.1283963463984,138.67750810323608 L 1000 150 L 998.1283963463984,161.32249189676392 L 995.8701873048907,164.3354279620996 L 993.6119782633831,161.63910793025346 L 991.3537692218754,162.9018682523013 L 989.0955601803677,165.71472625679192 L 986.83735113886,162.27481865729726 L 984.5791420973522,161.75922943036005 L 982.3209330558446,161.37430886996736 L 980.0627240143369,160.83104542972592 L 977.8045149728292,158.80215083756332 L 975.5463059313215,159.22838188322902 L 973.2880968898138,164.5557583824909 L 971.0298878483062,161.1767325746417 L 968.7716788067985,157.81897304544228 L 966.5134697652908,157.65933192126374 L 964.2552607237831,163.64325673307553 L 961.9970516822754,159.90836436909672 L 959.7388426407678,163.66256194016668 L 957.48063359926,159.44034363342578 L 955.2224245577523,159.60661183960636 L 952.9642155162446,159.11241534490512 L 950.7060064747369,162.3185768544171 L 948.4477974332293,159.98574177512654 L 946.1895883917216,160.5069828482169 L 943.9313793502139,162.07184143267497 L 941.6731703087062,165.87009152857863 L 939.4149612671986,168.14652417580547 L 937.1567522256909,167.83926721511006 L 934.8985431841832,167.23953014251117 L 932.6403341426754,165.4488331902017 L 930.3821251011677,164.02100192506947 L 928.1239160596601,166.85047274406813 L 925.8657070181524,164.92769961583485 L 923.6074979766447,163.46175719613055 L 921.349288935137,163.6069467673112 L 919.0910798936293,161.10671176196064 L 916.8328708521217,161.93455777842874 L 914.574661810614,161.70816384207117 L 912.3164527691063,162.08825213170311 L 910.0582437275986,158.22413289702382 L 907.8000346860908,156.5101948673726 L 905.5418256445832,159.53470025690052 L 903.2836166030755,162.67714240370526 L 901.0254075615678,163.8486590147515 L 898.7671985200601,168.19712364169376 L 896.5089894785524,162.56098436320804 L 894.2507804370448,162.6630719127146 L 891.9925713955371,165.48451385926944 L 889.7343623540294,165.27627354477167 L 887.4761533125217,163.6112169005978 L 885.217944271014,160.56916613386258 L 882.9597352295064,163.33362136425018 L 880.7015261879986,163.19190359864635 L 878.4433171464909,167.51894728796964 L 876.1851081049832,163.7965588152143 L 873.9268990634755,166.095511622708 L 871.6686900219679,169.72772054825572 L 869.4104809804602,168.53602619267585 L 867.1522719389525,171.6597953426981 L 864.8940628974448,176.8630005994466 L 862.6358538559371,172.42342471886568 L 860.3776448144295,173.002497778992 L 858.1194357729217,182.06753562753855 L 855.861226731414,171.86892709488768 L 853.6030176899063,181.03282971126094 L 851.3448086483986,169.0262173169518 L 849.086599606891,165.58801797177432 L 846.8283905653833,161.88580795872156 L 844.5701815238756,163.51093232156467 L 842.3119724823679,166.62945013259022 L 840.0537634408602,166.751936509494 L 837.7955543993526,170.5060495829473 L 835.5373453578449,168.74030884499436 L 833.2791363163371,160.66123867065065 L 831.0209272748294,163.32924000043607 L 828.7627182333217,164.30895318791562 L 826.5045091918141,166.04145032362402 L 824.2463001503064,163.80879046316005 L 821.9880911087987,163.72705905720798 L 819.729882067291,161.3650087880748 L 817.4716730257833,162.4349264387768 L 815.2134639842757,164.07245382259177 L 812.955254942768,168.17141159123838 L 810.6970459012603,164.65635229286846 L 808.4388368597525,161.98423825112764 L 806.1806278182448,162.62090513345308 L 803.9224187767372,171.61663743280758 L 801.6642097352295,169.23629662306962 L 799.4060006937218,177.56959081091267 L 797.1477916522141,181.80856345842963 L 794.8895826107064,183.13121564020895 L 792.6313735691988,169.87401813947983 L 790.3731645276911,177.63373310841027 L 788.1149554861834,170.80700963639532 L 785.8567464446757,170.8765785404438 L 783.598537403168,167.63589134027424 L 781.3403283616603,163.96350069463114 L 779.0821193201526,159.29495483663325 L 776.8239102786449,162.20331899204032 L 774.5657012371372,165.22813635378404 L 772.3074921956296,165.11617275169294 L 770.0492831541219,164.39455958159144 L 767.7910741126142,163.7400972571804 L 765.5328650711065,160.38708933506737 L 763.2746560295988,160.63407689241316 L 761.0164469880912,161.83673293298585 L 758.7582379465834,160.40294336010268 L 756.5000289050757,162.29252178348648 L 754.241819863568,163.67999548588656 L 751.9836108220603,164.69026951167567 L 749.7254017805527,165.67755212324784 L 747.467192739045,167.98899642781976 L 745.2089836975373,167.94579609225156 L 742.9507746560296,174.06570830597548 L 740.6925656145219,176.58953223499728 L 738.4343565730143,176.6486902380136 L 736.1761475315066,180.28892905824765 L 733.9179384899988,174.04585131632487 L 731.6597294484911,175.29344245762226 L 729.4015204069834,173.99591939853374 L 727.1433113654758,179.7713934538139 L 724.8851023239681,177.34040143613078 L 722.6268932824604,161.97591815706502 L 720.3686842409527,165.70589014747193 L 718.110475199445,163.2240457716065 L 715.8522661579374,164.73951148339188 L 713.5940571164297,160.01494975650235 L 711.335848074922,158.6605852121371 L 709.0776390334142,164.22394977928664 L 706.8194299919065,164.21694519983464 L 704.5612209503989,164.31500237982294 L 702.3030119088912,166.75084423466888 L 700.0448028673835,163.9049354613404 L 697.7865938258758,164.74182160700832 L 695.5283847843681,161.66579688463972 L 693.2701757428605,160.92029880213903 L 691.0119667013528,159.9846218294398 L 688.7537576598451,160.9186080625429 L 686.4955486183374,161.13590591020179 L 684.2373395768296,159.49153228776908 L 681.979130535322,166.10060018370166 L 679.7209214938143,168.78609114928466 L 677.4627124523066,170.93219149054903 L 675.2045034107989,168.71710076603708 L 672.9462943692912,169.38578316375285 L 670.6880853277836,165.02804635619816 L 668.4298762862759,169.3504191640339 L 666.1716672447682,168.20096994793354 L 663.9134582032605,173.0903706795499 L 661.6552491617527,171.42954181176728 L 659.3970401202452,168.48576709607715 L 657.1388310787374,166.38694268695292 L 654.8806220372297,160.09068474585877 L 652.622412995722,160.81580040514137 L 650.3642039542144,162.6866617240176 L 648.1059949127067,164.59636611363766 L 645.847785871199,161.99730071935414 L 643.5895768296913,158.27149863430182 L 641.3313677881836,162.51405288976053 L 639.073158746676,159.65028002934795 L 636.8149497051683,162.8730972107175 L 634.5567406636605,164.12807128465764 L 632.2985316221528,161.74340752794603 L 630.0403225806451,165.25746199665676 L 627.7821135391375,160.96061988939638 L 625.5239044976298,161.26644184272405 L 623.2656954561221,162.1772728480196 L 621.0074864146144,160.05432346857594 L 618.7492773731067,163.13135536347136 L 616.4910683315991,162.11947530542412 L 614.2328592900914,170.4768278634069 L 611.9746502485837,171.24711943191315 L 609.716441207076,165.37850702822675 L 607.4582321655682,168.99111257199175 L 605.2000231240606,170.282923845954 L 602.9418140825529,167.1784592330031 L 600.6836050410452,170.68754488601053 L 598.4253959995375,173.34692509793894 L 596.1671869580298,171.671238599207 L 593.9089779165222,178.97325565563384 L 591.6507688750145,177.12441004910983 L 589.3925598335068,164.59424940647995 L 587.134350791999,160.12139383638188 L 584.8761417504913,162.38231211192704 L 582.6179327089837,161.1910287119744 L 580.359723667476,161.66364662517972 L 578.1015146259683,161.97885856796472 L 575.8433055844606,161.24524855469085 L 573.5850965429529,165.05873757972842 L 571.3268875014453,166.4154026245663 L 569.0686784599376,160.94236022251545 L 566.8104694184299,161.58695011327904 L 564.5522603769222,159.13720890544428 L 562.2940513354145,160.48291337236503 L 560.0358422939069,161.8834122641586 L 557.7776332523991,162.61290290474557 L 555.5194242108914,158.98712934682806 L 553.2612151693837,159.6818590450349 L 551.003006127876,161.13091329323538 L 548.7447970863684,159.00942955755107 L 546.4865880448607,161.7482038378228 L 544.228379003353,159.0196781241048 L 541.9701699618453,161.36894064107986 L 539.7119609203376,159.39253447860227 L 537.45375187883,160.64610443766568 L 535.1955428373223,164.72742775756765 L 532.9373337958145,170.33247328811356 L 530.6791247543068,165.5984912531459 L 528.4209157127991,164.46227909515056 L 526.1627066712915,159.47852914798312 L 523.9044976297838,159.2370971381694 L 521.6462885882761,161.07290717956457 L 519.3880795467684,160.26216171408026 L 517.1298705052607,162.1935559789259 L 514.8716614637531,157.58587448393936 L 512.6134524222454,160.45125518516264 L 510.35524338073765,163.2686998303957 L 508.09703433923,165.81145631290184 L 505.8388252977223,167.97652475786353 L 503.58061625621457,163.83824459479513 L 501.3224072147069,167.1483699391759 L 499.0641981731992,172.5187712271832 L 496.80598913169155,170.3976033525485 L 494.54778009018384,172.15549635626866 L 492.2895710486761,180.19759431292897 L 490.03136200716847,168.0186186403346 L 487.77315296566076,176.09173342074186 L 485.5149439241531,168.01267431945564 L 483.2567348826454,164.33734496903915 L 480.9985258411377,162.21824026333644 L 478.74031679963,161.4340162898893 L 476.4821077581223,163.41029424740722 L 474.22389871661466,162.3631970410832 L 471.96568967510694,162.68816006398092 L 469.7074806335993,159.02055764929392 L 467.4492715920916,161.0421713785948 L 465.19106255058387,164.43981875097597 L 462.9328535090762,163.48891249271026 L 460.6746444675685,162.70998788322987 L 458.41643542606084,163.65007669761064 L 456.15822638455313,166.83879992861972 L 453.9000173430454,166.80613630482347 L 451.64180830153776,165.30155393861912 L 449.38359926003005,165.08584511509284 L 447.1253902185224,166.45173735811647 L 444.8671811770147,163.68642705997632 L 442.608972135507,162.31121568897143 L 440.3507630939993,164.87484522413556 L 438.0925540524916,168.03769645648617 L 435.83434501098395,165.95281476215501 L 433.57613596947624,173.48420694673862 L 431.31792692796853,174.2480068971857 L 429.0597178864609,185.18705061467054 L 426.80150884495316,168.90980264296007 L 424.5432998034455,174.32794111012012 L 422.2850907619378,173.63372400341328 L 420.0268817204301,169.63167452042975 L 417.7686726789224,166.7677526192166 L 415.5104636374147,162.19263541203838 L 413.25225459590706,158.54475844000643 L 410.99404555439935,161.0237800385861 L 408.73583651289164,166.63244627232834 L 406.477627471384,165.77793869601638 L 404.21941842987627,159.18046194378098 L 401.9612093883686,159.69341669290444 L 399.7030003468609,163.76777137998295 L 397.4447913053532,161.77227330285368 L 395.18658226384554,157.56908768150538 L 392.9283732223378,160.67723350123543 L 390.67016418083017,161.80919324828707 L 388.41195513932246,160.03811278128805 L 386.1537460978148,160.1756972354432 L 383.8955370563071,162.4518231365668 L 381.6373280147994,164.04202471822137 L 379.3791189732917,161.39045368173592 L 377.120909931784,162.36675137323186 L 374.86270089027636,161.21284080779478 L 372.60449184876865,171.41663763250253 L 370.34628280726093,167.67431817941358 L 368.0880737657533,164.86206906111886 L 365.82986472424557,171.94528450716498 L 363.5716556827379,179.5066750766308 L 361.3134466412302,181.24860354070486 L 359.0552375997225,169.21286538997757 L 356.79702855821483,176.80621780139404 L 354.5388195167071,176.60974296410464 L 352.28061047519947,174.37094043501295 L 350.02240143369175,162.74636780569531 L 347.76419239218404,160.34353918286465 L 345.5059833506764,160.10255222616993 L 343.2477743091687,159.7281939336028 L 340.989565267661,162.26446169259614 L 338.7313562261533,162.99525789930743 L 336.4731471846456,162.5789427662684 L 334.21493814313794,158.93032107710104 L 331.95672910163023,161.23184365166026 L 329.6985200601226,160.5060347616299 L 327.44031101861486,162.15551048574883 L 325.1821019771072,161.6103587882903 L 322.9238929355995,162.78015370510855 L 320.6656838940918,158.33050008062673 L 318.40747485258413,158.33642689704664 L 316.1492658110764,157.12961587870586 L 313.89105676956876,157.11972531521855 L 311.63284772806105,164.8279454837764 L 309.37463868655334,166.67200421878084 L 307.1164296450457,168.5756828663056 L 304.858220603538,162.7631064208706 L 302.6000115620303,164.03649555969758 L 300.3418025205226,175.26604184522117 L 298.0835934790149,171.38576844392975 L 295.82538443750724,174.01017244504237 L 293.5671753959995,174.1119508737758 L 291.3089663544919,178.00227825361236 L 289.05075731298416,174.0438404605843 L 286.79254827147645,178.85595315853382 L 284.5343392299688,166.20306034545976 L 282.2761301884611,158.84151552700044 L 280.0179211469534,157.6371023757968 L 277.7597121054457,158.21175524601114 L 275.501503063938,163.36775176050926 L 273.24329402243035,163.29070826881758 L 270.98508498092264,157.6113935339311 L 268.726875939415,159.90141399105886 L 266.46866689790727,158.539368626802 L 264.21045785639956,161.655908803531 L 261.9522488148919,161.97023461084882 L 259.6940397733842,162.40749520974316 L 257.43583073187654,164.61841910757659 L 255.17762169036882,167.3718005947586 L 252.91941264886114,160.35296924109633 L 250.66120360735346,157.95082944911678 L 248.40299456584577,157.02312242196464 L 246.14478552433806,158.98357662049713 L 243.88657648283038,163.76878288323107 L 241.6283674413227,164.2217362616705 L 239.370158399815,167.30537826017394 L 237.11194935830733,168.4913127363677 L 234.85374031679964,164.20816984285725 L 232.59553127529193,173.03842396907703 L 230.33732223378425,167.57446607199944 L 228.07911319227657,173.98232620799175 L 225.82090415076888,169.2437285834343 L 223.5626951092612,173.1724745710088 L 221.3044860677535,165.20992139498873 L 219.0462770262458,171.7489025798472 L 216.78806798473812,159.98713887314682 L 214.52985894323044,159.48519417843602 L 212.27164990172275,159.28725082302321 L 210.01344086021504,157.30461223647745 L 207.75523181870736,160.36644158530484 L 205.49702277719967,160.13906702894465 L 203.238813735692,157.28811099746025 L 200.9806046941843,160.11108175950554 L 198.7223956526766,159.0600939731008 L 196.4641866111689,158.3399109734856 L 194.20597756966123,156.56943467206656 L 191.94776852815355,157.06444170862875 L 189.68955948664586,158.0624119253836 L 187.43135044513818,158.273329619654 L 185.17314140363047,157.4004780132956 L 182.91493236212278,157.30713901907205 L 180.6567233206151,158.18406445665042 L 178.39851427910742,157.33368083334267 L 176.14030523759973,157.91093748652298 L 173.88209619609202,157.78912255245302 L 171.62388715458434,157.76562646994716 L 169.36567811307665,157.5668528876216 L 167.10746907156897,157.15051508562325 L 164.8492600300613,156.95797437464705 L 162.5910509885536,157.64837391743666 L 160.3328419470459,157.27631766676723 L 158.0746329055382,159.5234664928155 L 155.81642386403053,159.0124317942603 L 153.55821482252284,157.2751507422214 L 151.30000578101516,159.92354751116767 L 149.04179673950745,161.60586142046296 L 146.78358769799976,160.64438767754743 L 144.52537865649208,162.77818362118919 L 142.2671696149844,161.41565835749384 L 140.0089605734767,158.12443363018613 L 137.750751531969,159.35702751109702 L 135.49254249046132,155.7981970302816 L 133.23433344895363,158.66253365727636 L 130.97612440744595,160.65716636909679 L 128.71791536593827,159.28106186725188 L 126.45970632443057,158.05206078804164 L 124.20149728292289,159.7473220151279 L 121.94328824141519,158.14203685546653 L 119.6850791999075,156.64804508297655 L 117.42687015839982,157.346432162639 L 115.16866111689212,157.69772047297582 L 112.91045207538444,158.13050939497296 L 110.65224303387674,158.20330749224547 L 108.39403399236906,159.69759964187605 L 106.13582495086138,158.5420608655429 L 103.87761590935368,157.11502568972958 L 101.619406867846,154.3694926190769 L 99.3611978263383,156.23883524003716 L 97.10298878483061,159.03171838512634 L 94.84477974332293,157.20560627286417 L 92.58657070181523,159.4292124164235 L 90.32836166030755,157.95563731928968 L 88.07015261879987,157.73019859738423 L 85.81194357729217,159.3785055514442 L 83.55373453578449,157.41165943075254 L 81.2955254942768,158.44507067459506 L 79.0373164527691,158.3396586187704 L 76.77910741126142,154.7021712206608 L 74.52089836975372,156.36742429909629 L 72.26268932824604,157.32599785517968 L 70.00448028673836,155.9988632186756 L 67.74627124523066,153.1128146710183 L 65.48806220372298,153.54341396929874 L 63.229853162215285,152.08954146226523 L 60.971644120707595,152.59034984506837 L 58.71343507919991,152.42815110443368 L 56.45522603769222,153.36192573133025 L 54.19701699618453,152.16180672069402 L 51.93880795467684,152.77882896229482 L 49.68059891316915,152.5785649757969 L 47.422389871661466,152.66744249894668 L 45.164180830153775,153.66519626089857 L 42.905971788646085,151.9280533178757 L 40.6477627471384,153.86897287290614 L 38.38955370563071,152.45346058200207 L 36.13134466412302,152.8956536564342 L 33.87313562261533,151.3372454330939 L 31.614926581107643,152.38172923440095 L 29.356717539599956,151.78276563634827 L 27.098508498092265,152.3962350401646 L 24.840299456584575,151.51898276289575 L 22.582090415076888,152.03696391626482 L 20.3238813735692,151.58635571570449 L 18.06567233206151,152.48992240399852 L 15.807463290553821,152.75429932033498 L 13.549254249046133,151.2276352282299 L 11.291045207538444,152.11319318940838 L 9.032836166030755,150.94446395870384 L 6.774627124523066,151.2623234537236 L 4.5164180830153775,151.36277091363763 L 2.2582090415076888,151.46881046204894 L 0,150.03079472259125"></path></g></svg>